<svg aria-hidden="true" style="position: absolute; width: 0; height: 0; overflow: hidden;" version="1.1" xmlns="http://www.w3.org/2000/svg" xmlns:xlink="http://www.w3.org/1999/xlink">
<defs>
<symbol id="icon-arrow-left" viewBox="0 0 32 32">
<path d="M20.391 4.391l-11.609 11.609 11.609 11.609 1.885-1.885-9.724-9.724 9.724-9.724-1.885-1.885z"></path>
</symbol>
<symbol id="icon-messages" viewBox="0 0 32 32">
<path stroke-linejoin="round" stroke-linecap="round" stroke-miterlimit="10" stroke-width="2" d="M23.973 14.387v5.333c0 0.347-0.013 0.68-0.053 1-0.307 3.6-2.427 5.387-6.333 5.387h-0.533c-0.333 0-0.653 0.16-0.853 0.427l-1.6 2.133c-0.707 0.947-1.853 0.947-2.56 0l-1.6-2.133c-0.173-0.227-0.56-0.427-0.853-0.427h-0.533c-4.253 0-6.387-1.053-6.387-6.387v-5.333c0-3.907 1.8-6.027 5.387-6.333 0.32-0.040 0.653-0.053 1-0.053h8.533c4.253 0 6.387 2.133 6.387 6.387z"></path>
<path stroke-linejoin="round" stroke-linecap="round" stroke-miterlimit="10" stroke-width="2" d="M29.307 9.053v5.333c0 3.92-1.8 6.027-5.387 6.333 0.040-0.32 0.053-0.653 0.053-1v-5.333c0-4.253-2.133-6.387-6.387-6.387h-8.533c-0.347 0-0.68 0.013-1 0.053 0.307-3.587 2.427-5.387 6.333-5.387h8.533c4.253 0 6.387 2.133 6.387 6.387z"></path>
<path stroke-linejoin="round" stroke-linecap="round" stroke-miterlimit="4" stroke-width="2.6667" d="M17.994 17.667h0.012"></path>
<path stroke-linejoin="round" stroke-linecap="round" stroke-miterlimit="4" stroke-width="2.6667" d="M13.327 17.667h0.012"></path>
<path stroke-linejoin="round" stroke-linecap="round" stroke-miterlimit="4" stroke-width="2.6667" d="M8.661 17.667h0.012"></path>
</symbol>
<symbol id="icon-male" viewBox="0 0 28 32">
<path d="M18.113 2.925c0.231-0.563 0.781-0.925 1.387-0.925h7c0.831 0 1.5 0.669 1.5 1.5v7c0 0.606-0.363 1.156-0.925 1.387s-1.206 0.106-1.637-0.325l-2.087-2.088-3.288 3.287c1.219 1.775 1.938 3.919 1.938 6.238 0 6.075-4.925 11-11 11s-11-4.925-11-11 4.925-11 11-11c2.313 0 4.463 0.713 6.238 1.938l3.288-3.287-2.087-2.088c-0.431-0.431-0.556-1.075-0.325-1.638zM25 5v0 0 0zM11 26c3.866 0 7-3.134 7-7s-3.134-7-7-7v0c-3.866 0-7 3.134-7 7s3.134 7 7 7v0z"></path>
</symbol>
<symbol id="icon-female" viewBox="0 0 24 32">
<path d="M5 11c0-3.866 3.134-7 7-7s7 3.134 7 7v0c0 3.866-3.134 7-7 7s-7-3.134-7-7v0zM14 21.819c5.119-0.938 9-5.425 9-10.819 0-6.075-4.925-11-11-11s-11 4.925-11 11c0 5.394 3.881 9.881 9 10.819v2.181h-2c-1.106 0-2 0.894-2 2s0.894 2 2 2h2v2c0 1.106 0.894 2 2 2s2-0.894 2-2v-2h2c1.106 0 2-0.894 2-2s-0.894-2-2-2h-2v-2.181z"></path>
</symbol>
<symbol id="icon-earth" viewBox="0 0 32 32">
<path d="M15.197 1.6l-1.322 0.059-1.313 0.169-1.297 0.291-1.262 0.4-1.228 0.506-1.175 0.606-1.119 0.716-1.050 0.806-0.978 0.897-0.894 0.981-0.813 1.050-0.709 1.116-0.613 1.178-0.506 1.222-0.4 1.272-0.291 1.291-0.169 1.319-0.059 1.322 0.059 1.322 0.169 1.319 0.291 1.291 0.4 1.266 0.506 1.228 0.613 1.178 0.709 1.116 0.813 1.050 0.894 0.981 0.978 0.897 1.050 0.806 1.119 0.709 1.175 0.613 1.228 0.506 1.262 0.4 1.297 0.291 1.313 0.169 1.322 0.059 1.328-0.059 1.313-0.169 1.297-0.291 1.262-0.4 1.228-0.506 1.175-0.613 1.119-0.709 1.050-0.806 0.978-0.897 0.894-0.981 0.806-1.050 0.716-1.116 0.613-1.178 0.506-1.228 0.397-1.266 0.288-1.291 0.175-1.319 0.059-1.322-0.059-1.322-0.175-1.319-0.288-1.291-0.397-1.272-0.506-1.222-0.613-1.178-0.716-1.116-0.806-1.050-0.894-0.981-0.978-0.897-1.050-0.806-1.119-0.716-1.175-0.606-1.228-0.506-1.262-0.4-1.297-0.291-1.313-0.169-1.328-0.059zM17.881 3.659l1.097 0.272 1.069 0.363 1.041 0.453 0.991 0.541 0.944 0.619 0.891 0.697 0.828 0.769 0.756 0.838 0.688 0.903-2.094 0.497-2.119 0.394-0.497-1.162-0.575-1.131-0.65-1.088-0.722-1.041-0.788-0.987-0.859-0.934zM13.906 4.066l-0.425 2.122-0.353 2.141-0.272 2.15-1.628-0.122-1.616-0.181-1.616-0.241 0.619-1.041 0.703-0.978 0.784-0.922 0.853-0.847 0.922-0.781 0.988-0.694 1.041-0.606zM15.738 4.088l0.922 0.878 0.853 0.944 0.778 1.009 0.7 1.069 0.625 1.109 0.531 1.156-1.828 0.172-1.834 0.097-1.838 0.016 0.284-2.166 0.363-2.153 0.444-2.131zM10.369 4.287l-1.012 0.909-0.934 0.991-0.841 1.069-0.759 1.131-0.656 1.194-1.95-0.469 0.688-0.903 0.763-0.841 0.825-0.769 0.897-0.7 0.944-0.625 0.997-0.537 1.041-0.45zM3.253 10.703l2.2 0.547-0.422 1.325-0.306 1.35-0.184 1.372-0.072 1.381-1.331-0.272-1.328-0.3 0.106-1.125 0.197-1.106 0.294-1.088 0.378-1.063 0.469-1.022zM27.147 10.703l0.469 1.022 0.378 1.063 0.294 1.088 0.197 1.106 0.106 1.125-1.769 0.394-1.788 0.344-1.794 0.281-0.025-1.366-0.125-1.359-0.222-1.35-0.322-1.328 1.544-0.284 1.534-0.341 1.522-0.394zM7.222 11.616l1.816 0.287 1.822 0.213 1.831 0.144-0.106 1.787-0.059 1.794v1.791l-2.097-0.137-2.091-0.212-2.075-0.291 0.028-1.097 0.109-1.094 0.194-1.084 0.278-1.066 0.35-1.034zM20.762 11.981l0.328 1.319 0.231 1.341 0.116 1.353 0.012 1.356-2.375 0.212-2.378 0.113-2.384 0.009v-1.787l0.059-1.784 0.109-1.787 2.097-0.019 2.097-0.109 2.087-0.216zM1.841 17.947l1.353 0.3 1.366 0.272 0.162 1.103 0.228 1.094 0.309 1.078 0.378 1.050 0.453 1.025-1.344-0.316-1.334-0.356-0.484-0.994-0.406-1.022-0.313-1.056-0.231-1.078-0.137-1.1zM28.559 17.947l-0.137 1.1-0.231 1.078-0.313 1.056-0.406 1.022-0.484 0.994-1.762 0.466-1.775 0.381-1.794 0.316 0.519-1.306 0.416-1.344 0.319-1.372 0.216-1.387 1.819-0.278 1.813-0.334 1.803-0.391zM6.4 18.822l2.056 0.272 2.053 0.203 2.069 0.128 0.106 1.794 0.159 1.791 0.219 1.781-1.572-0.106-1.569-0.166-1.563-0.219-0.566-1.022-0.481-1.069-0.394-1.103-0.303-1.131-0.216-1.153zM21.294 19.169l-0.203 1.131-0.272 1.122-0.35 1.091-0.428 1.075-0.491 1.041-1.556 0.128-1.559 0.072-1.563 0.019-0.225-1.784-0.166-1.791-0.109-1.794 2.309-0.016 2.309-0.103 2.303-0.191zM4.944 25.444l1.169 0.259 1.175 0.225 0.678 0.928 0.741 0.875 0.806 0.822 0.856 0.759-1.028-0.444-0.988-0.534-0.938-0.613-0.888-0.688-0.825-0.766-0.759-0.825zM25.456 25.444l-0.759 0.825-0.825 0.766-0.887 0.688-0.938 0.606-0.988 0.534-1.028 0.45-1.063 0.363-1.087 0.266 0.778-0.844 0.725-0.891 0.672-0.934 0.609-0.969 1.606-0.231 1.6-0.288 1.584-0.341zM9.838 26.313l1.75 0.175 1.747 0.109 0.269 1.475 0.303 1.462-1.119-0.659-1.063-0.766-0.981-0.856-0.906-0.941zM18.403 26.522l-0.809 1.066-0.891 1.003-0.966 0.922-0.309-1.434-0.272-1.441 1.625-0.031 1.622-0.084z"></path>
</symbol>
<symbol id="icon-g-cell-connection" viewBox="0 0 32 32">
<path d="M19.88 2.265c-0.091 0.091-0.148 0.216-0.148 0.355s0.057 0.264 0.148 0.355l0 0c0.997 1.006 1.613 2.391 1.613 3.92 0 1.509-0.6 2.878-1.575 3.881l0.001-0.001c-0.090 0.090-0.145 0.215-0.145 0.352s0.056 0.262 0.145 0.353l-0-0c0.090 0.089 0.213 0.144 0.35 0.145h0c0.001 0 0.002 0 0.003 0 0.14 0 0.266-0.057 0.357-0.15l0-0c1.149-1.182 1.857-2.798 1.857-4.58 0-1.806-0.728-3.443-1.908-4.631l0 0c-0.090-0.088-0.214-0.143-0.35-0.143s-0.26 0.055-0.35 0.143l0-0z"></path>
<path d="M22.040 12.895c-0.090 0.090-0.145 0.215-0.145 0.352s0.056 0.262 0.145 0.353l-0-0c0.091 0.091 0.216 0.148 0.355 0.148s0.264-0.057 0.355-0.148l0-0c1.691-1.725 2.734-4.091 2.734-6.7 0-2.634-1.064-5.020-2.785-6.751l0 0c-0.090-0.090-0.215-0.145-0.353-0.145-0.135 0-0.258 0.054-0.348 0.141l0-0c-0.091 0.091-0.148 0.216-0.148 0.355s0.057 0.264 0.148 0.355l0 0c1.539 1.549 2.491 3.683 2.491 6.040 0 2.337-0.935 4.455-2.452 6.001l0.001-0.001z"></path>
<path d="M17.805 9.36c0.089 0.086 0.211 0.139 0.345 0.14h0c0.001 0 0.002 0 0.003 0 0.142 0 0.271-0.059 0.362-0.155l0-0c0.603-0.637 0.974-1.5 0.974-2.449 0-0.977-0.393-1.862-1.030-2.506l0 0c-0.090-0.090-0.215-0.145-0.352-0.145s-0.262 0.056-0.353 0.145l0-0c-0.091 0.091-0.148 0.216-0.148 0.355s0.057 0.264 0.148 0.355l0 0c0.456 0.461 0.737 1.096 0.737 1.796 0 0.682-0.267 1.302-0.703 1.76l0.001-0.001c-0.085 0.090-0.138 0.211-0.138 0.345 0 0.141 0.059 0.269 0.153 0.36l0 0z"></path>
<path d="M12.12 2.265c-0.090-0.090-0.215-0.145-0.352-0.145s-0.262 0.056-0.353 0.145l0-0c-1.186 1.189-1.919 2.83-1.919 4.643 0 1.787 0.713 3.408 1.871 4.593l-0.001-0.001c0.091 0.093 0.217 0.15 0.357 0.15 0.001 0 0.002 0 0.003 0h-0c0.137-0.001 0.26-0.056 0.35-0.145l-0 0c0.090-0.090 0.145-0.215 0.145-0.352s-0.056-0.262-0.145-0.353l0 0c-0.972-1.001-1.571-2.369-1.571-3.877 0-1.53 0.617-2.917 1.616-3.923l-0 0c0.099-0.092 0.161-0.222 0.161-0.368s-0.062-0.276-0.161-0.367l-0-0z"></path>
<path d="M9.295 0.145c-1.721 1.731-2.784 4.116-2.784 6.75 0 2.609 1.043 4.974 2.736 6.701l-0.002-0.002c0.091 0.091 0.216 0.148 0.355 0.148s0.264-0.057 0.355-0.148l0-0c0.090-0.090 0.145-0.215 0.145-0.352s-0.056-0.262-0.145-0.353l0 0c-1.512-1.544-2.446-3.66-2.446-5.995 0-2.357 0.951-4.491 2.491-6.041l-0 0c0.091-0.091 0.148-0.216 0.148-0.355s-0.057-0.264-0.148-0.355l-0-0c-0.090-0.090-0.215-0.145-0.352-0.145s-0.262 0.056-0.353 0.145l0-0z"></path>
<path d="M14.245 4.39c-0.090-0.090-0.215-0.145-0.352-0.145s-0.262 0.056-0.353 0.145l0-0c-0.632 0.643-1.022 1.525-1.022 2.498 0 0.953 0.374 1.819 0.983 2.458l-0.001-0.001c0.091 0.096 0.22 0.155 0.362 0.155 0.001 0 0.002 0 0.003 0h-0c0.275-0.001 0.498-0.225 0.498-0.5 0-0.134-0.053-0.255-0.138-0.345l0 0c-0.435-0.457-0.702-1.077-0.702-1.759 0-0.7 0.282-1.334 0.738-1.796l-0 0c0.087-0.090 0.141-0.212 0.141-0.348 0-0.143-0.060-0.271-0.155-0.362l-0-0z"></path>
<path d="M9 29c-0.828 0-1.5 0.672-1.5 1.5v0 1c0 0.276 0.224 0.5 0.5 0.5v0h3c0.276 0 0.5-0.224 0.5-0.5v0-1c0-0.003 0-0.006 0-0.010 0-0.769-0.578-1.402-1.323-1.49l-0.007-0.001 0.83-2.75h10l0.83 2.75c-0.752 0.088-1.33 0.722-1.33 1.49 0 0.003 0 0.007 0 0.010v-0.001 1c0 0.276 0.224 0.5 0.5 0.5v0h3c0.276 0 0.5-0.224 0.5-0.5v0-1c0-0.828-0.672-1.5-1.5-1.5v0h-0.13l-6.24-20.645c0.518-0.244 0.87-0.761 0.87-1.361 0-0.828-0.672-1.5-1.5-1.5s-1.5 0.672-1.5 1.5c0 0.6 0.352 1.117 0.861 1.357l0.009 0.004-6.24 20.645zM10.5 30.5v0.5h-2v-0.5c0-0.276 0.224-0.5 0.5-0.5v0h1c0.276 0 0.5 0.224 0.5 0.5v0zM18.425 17.75h-4.5l3.825-2.295zM18.575 18.25l1.060 3.5h-6.75l5.685-3.5zM13.715 17.28l2.285-7.55 1.58 5.23zM13.425 18.25h4.19l-5.15 3.17zM12.215 22.25h6.605l-7.63 3.395zM12.18 25.75l7.64-3.395 1 3.395zM23.5 30.5v0.5h-2v-0.5c0-0.276 0.224-0.5 0.5-0.5v0h1c0.276 0 0.5 0.224 0.5 0.5v0zM16 6.5c0.276 0 0.5 0.224 0.5 0.5s-0.224 0.5-0.5 0.5c-0.276 0-0.5-0.224-0.5-0.5v0c0-0.276 0.224-0.5 0.5-0.5v0z"></path>
</symbol>
<symbol id="icon-family-house-facade" viewBox="0 0 32 32">
<path d="M30.978 16.515c0.113 0.085 0.248 0.128 0.384 0.128 0.097 0 0.195-0.022 0.286-0.067 0.216-0.108 0.353-0.329 0.353-0.572v-2.566c0-0.201-0.095-0.39-0.255-0.511l-2.967-2.226c0-0.008 0.001-0.016 0.001-0.024v-5.491c0-0.353-0.286-0.639-0.639-0.639h-4.426c-0.353 0-0.639 0.286-0.639 0.639v1.236l-6.664-5.001c-0.227-0.171-0.54-0.171-0.767 0l-15.334 11.507c-0.161 0.121-0.255 0.31-0.255 0.511v2.566c0 0.242 0.137 0.463 0.353 0.572s0.475 0.085 0.669-0.060l0.255-0.192v13.107h-0.694c-0.353 0-0.639 0.286-0.639 0.639s0.286 0.639 0.639 0.639h30.721c0.353 0 0.639-0.286 0.639-0.639s-0.286-0.639-0.639-0.639h-0.637v-13.107l0.255 0.192zM24.353 5.824h3.148v3.918l-3.148-2.362v-1.556zM1.333 13.757l14.695-11.027 14.695 11.027v0.969l-14.311-10.74c-0.114-0.085-0.249-0.128-0.384-0.128s-0.27 0.043-0.383 0.128l-14.311 10.74v-0.969zM18.531 29.43h-5.064c0.002-0.021 0.003-0.042 0.003-0.063v-10.738h5.058v10.738c0 0.021 0.001 0.042 0.003 0.063zM29.444 15.502v13.929h-9.642c0.002-0.021 0.003-0.042 0.003-0.063v-11.377c0-0.353-0.286-0.639-0.639-0.639h-6.336c-0.353 0-0.639 0.286-0.639 0.639v11.377c0 0.021 0.001 0.042 0.003 0.063h-9.585v-13.929c0-0.044-0.004-0.086-0.013-0.128l13.43-10.078 13.43 10.078c-0.008 0.041-0.013 0.084-0.013 0.128z"></path>
<path d="M14.761 23.672c-0.168 0-0.332 0.069-0.451 0.187s-0.187 0.284-0.187 0.452c0 0.169 0.068 0.333 0.187 0.452s0.284 0.187 0.451 0.187c0.168 0 0.333-0.068 0.452-0.187s0.188-0.284 0.188-0.452c0-0.168-0.069-0.332-0.188-0.452-0.119-0.118-0.283-0.187-0.452-0.187z"></path>
<path d="M12.796 12.193c0 1.766 1.437 3.203 3.203 3.203s3.203-1.437 3.203-3.203c0-1.766-1.437-3.203-3.203-3.203s-3.203 1.437-3.203 3.203zM15.999 14.118c-0.838 0-1.551-0.538-1.816-1.286h3.631c-0.264 0.748-0.978 1.286-1.816 1.286zM17.815 11.554h-3.631c0.264-0.748 0.978-1.286 1.816-1.286s1.552 0.538 1.816 1.286z"></path>
<path d="M10.289 24.995v-7.005c0-0.353-0.286-0.639-0.639-0.639h-4.482c-0.353 0-0.639 0.286-0.639 0.639v7.006c-0.344 0.010-0.621 0.291-0.621 0.638 0 0.353 0.286 0.639 0.639 0.639h5.73c0.353 0 0.639-0.286 0.639-0.639 0-0.349-0.28-0.632-0.627-0.638zM9.011 18.629v1.278h-3.204v-1.278h3.204zM5.807 24.995v-3.81h3.204v3.81h-3.204z"></path>
<path d="M21.781 26.272h5.73c0.353 0 0.639-0.286 0.639-0.639 0-0.348-0.278-0.63-0.624-0.638v-7.005c0-0.353-0.286-0.639-0.639-0.639h-4.482c-0.353 0-0.639 0.286-0.639 0.639v7.005c-0.346 0.008-0.624 0.29-0.624 0.638 0 0.353 0.286 0.639 0.639 0.639zM23.044 24.995v-3.81h3.204v3.81h-3.204zM26.248 18.629v1.278h-3.204v-1.278h3.204z"></path>
</symbol>
<symbol id="icon-hearts" viewBox="0 0 32 32">
<path d="M30.234 8.9c-1.363-1.431-3.271-1.976-5.247-1.772 0.273-1.976-0.273-3.952-1.635-5.315-2.521-2.589-6.746-2.385-9.88 0.477-1.499 1.363-2.385 4.225-2.657 8.722-0.681 0.273-1.363 0.75-1.908 1.295-1.431 1.363-1.976 3.339-1.772 5.315-1.976-0.273-3.952 0.273-5.315 1.635-2.521 2.521-2.317 6.814 0.477 9.948 1.704 1.84 5.724 2.794 12.197 2.794 2.93 0 5.179-0.204 5.247-0.136 0.613-0.068 1.158-0.545 1.227-1.158 0.136-0.75 0.681-4.906 0.477-9.199 3.884-0.273 6.61-1.158 8.041-2.657 1.499-1.431 2.385-3.475 2.453-5.451 0.068-1.704-0.545-3.339-1.704-4.497zM18.514 29.206c-0.954 0.068-2.385 0.136-4.020 0.136-5.247 0-9.063-0.681-10.153-1.908-1.84-2.044-2.112-4.77-0.613-6.269 0.818-0.818 1.772-0.954 2.453-0.954 0.75 0 1.567 0.204 2.317 0.545 0.477 0.273 1.158 0.204 1.567-0.204s0.545-1.022 0.273-1.567c-0.886-1.704-0.75-3.68 0.409-4.838 0.681-0.613 1.567-0.954 2.521-0.954 1.295 0 2.657 0.613 3.611 1.635 2.453 2.657 2.112 10.494 1.635 14.378zM27.713 16.941c-1.090 1.090-3.339 1.772-6.541 1.976-0.341-2.317-1.090-4.429-2.385-5.86-1.363-1.567-3.271-2.453-5.247-2.521 0.409-4.497 1.363-5.928 1.772-6.269 2.044-1.84 4.77-2.112 6.201-0.613 1.158 1.227 1.295 3.135 0.341 4.906-0.273 0.477-0.204 1.158 0.204 1.567 0.409 0.477 1.022 0.545 1.567 0.273 1.704-0.954 3.611-0.75 4.77 0.409 0.613 0.613 0.954 1.567 0.954 2.589 0 1.295-0.613 2.589-1.635 3.543z"></path>
</symbol>
<symbol id="icon-strawberry" viewBox="0 0 32 32">
<path d="M30.178 9.108c-0.128-0.421-0.503-0.718-0.942-0.746l-1.839-0.118c-0.295-0.018-0.569-0.161-0.754-0.391s-0.265-0.529-0.22-0.822l0.193-1.245c0.057-0.367-0.084-0.738-0.372-0.974-0.287-0.237-0.677-0.304-1.027-0.178l-2.54 0.916c-0.293 0.106-0.616 0.077-0.885-0.079-0.268-0.155-0.455-0.42-0.51-0.727l-0.477-2.658c-0.066-0.366-0.32-0.671-0.669-0.801-0.348-0.131-0.739-0.068-1.030 0.166l-0.981 0.788c-0.231 0.186-0.528 0.266-0.821 0.22s-0.552-0.211-0.717-0.458l-1.021-1.534c-0.244-0.366-0.688-0.542-1.117-0.442s-0.749 0.455-0.805 0.891l-0.525 4.047 13.447 7.763 3.243-2.477c0.349-0.267 0.496-0.722 0.369-1.143z"></path>
<path d="M12.816 6.299c-3.803 0.431-12.004 5.87-10.946 13.522 0.774 5.599 2.721 10.157 5.011 11.479s7.21 0.729 12.446-1.399c7.156-2.91 7.766-12.731 6.238-16.24l-12.749-7.361zM6.484 15.712c0.456-0.79 1.195-1.218 1.649-0.956 0.454 0.262 0.453 1.116-0.004 1.906s-1.195 1.218-1.648 0.956c-0.455-0.262-0.454-1.115 0.003-1.906zM8.168 24.030c-0.456 0.79-1.194 1.218-1.649 0.956s-0.453-1.116 0.003-1.906c0.456-0.791 1.194-1.218 1.649-0.956s0.452 1.116-0.004 1.906zM12.141 12.11c0.456-0.79 1.195-1.218 1.649-0.956s0.453 1.116-0.003 1.906c-0.456 0.79-1.195 1.218-1.649 0.956s-0.453-1.117 0.003-1.907zM14.054 27.714c-0.456 0.791-1.195 1.218-1.649 0.956s-0.453-1.115 0.003-1.906c0.456-0.791 1.195-1.218 1.649-0.956s0.453 1.116-0.003 1.906zM14.353 20.256c-0.456 0.791-1.194 1.218-1.648 0.956s-0.454-1.116 0.003-1.906c0.456-0.79 1.194-1.218 1.649-0.956s0.453 1.116-0.004 1.906zM20.578 23.849c-0.456 0.791-1.195 1.218-1.649 0.956s-0.454-1.116 0.003-1.906 1.195-1.218 1.649-0.956c0.454 0.262 0.453 1.116-0.003 1.906zM20.745 17.364c-0.456 0.79-1.195 1.218-1.649 0.956s-0.453-1.116 0.003-1.906c0.456-0.791 1.195-1.218 1.649-0.956s0.453 1.116-0.004 1.906z"></path>
</symbol>
<symbol id="icon-venus-mars-solid" viewBox="0 0 32 32">
<path d="M8.8 17.6c3.093 0 5.6-2.507 5.6-5.6s-2.507-5.6-5.6-5.6v0c-3.093 0-5.6 2.507-5.6 5.6s2.507 5.6 5.6 5.6v0zM17.6 12c0 4.315-3.105 7.905-7.2 8.655v1.745h1.6c0.885 0 1.6 0.715 1.6 1.6s-0.715 1.6-1.6 1.6h-1.6v1.6c0 0.885-0.715 1.6-1.6 1.6s-1.6-0.715-1.6-1.6v-1.6h-1.6c-0.885 0-1.6-0.715-1.6-1.6s0.715-1.6 1.6-1.6h1.6v-1.745c-4.095-0.75-7.2-4.34-7.2-8.655 0-4.86 3.94-8.8 8.8-8.8s8.8 3.94 8.8 8.8zM13.595 21.23c0.965-0.505 1.845-1.155 2.605-1.92 1 0.925 2.335 1.49 3.805 1.49 3.095 0 5.6-2.505 5.6-5.6s-2.505-5.6-5.6-5.6c-0.36 0-0.715 0.035-1.055 0.1-0.245-1.075-0.65-2.085-1.2-3.010 0.715-0.19 1.47-0.29 2.25-0.29 1.85 0 3.57 0.57 4.99 1.55l1.030-1.030-1.67-1.67c-0.345-0.345-0.445-0.86-0.26-1.31s0.625-0.74 1.11-0.74h5.6c0.665 0 1.2 0.535 1.2 1.2v5.6c0 0.485-0.29 0.925-0.74 1.11s-0.965 0.085-1.31-0.26l-1.67-1.67-1.030 1.030c0.975 1.42 1.55 3.135 1.55 4.99 0 4.86-3.94 8.8-8.8 8.8-2.525 0-4.8-1.065-6.405-2.77z"></path>
</symbol>
<symbol id="icon-mercury-solid" viewBox="0 0 32 32">
<path d="M8.506 0.438c0.856-0.688 2.119-0.55 2.806 0.313 1.1 1.375 2.794 2.25 4.688 2.25s3.581-0.875 4.688-2.25c0.694-0.863 1.95-1 2.813-0.313s1 1.95 0.313 2.813c-0.488 0.606-1.038 1.15-1.65 1.631 2.919 1.975 4.837 5.325 4.837 9.119 0 5.569-4.137 10.169-9.5 10.9v1.6h2c0.831 0 1.5 0.669 1.5 1.5s-0.669 1.5-1.5 1.5h-2v1c0 0.831-0.669 1.5-1.5 1.5s-1.5-0.669-1.5-1.5v-1h-2c-0.831 0-1.5-0.669-1.5-1.5s0.669-1.5 1.5-1.5h2v-1.6c-5.363-0.731-9.5-5.331-9.5-10.9 0-3.794 1.919-7.144 4.844-9.119-0.613-0.475-1.162-1.025-1.65-1.631-0.694-0.863-0.55-2.119 0.313-2.813zM9 14c0 3.866 3.134 7 7 7s7-3.134 7-7v0c0-3.866-3.134-7-7-7s-7 3.134-7 7v0z"></path>
</symbol>
</defs>
</svg>
