<svg aria-hidden="true" style="position: absolute; width: 0; height: 0; overflow: hidden;" version="1.1" xmlns="http://www.w3.org/2000/svg" xmlns:xlink="http://www.w3.org/1999/xlink">
<defs>
<symbol id="icon-cam" viewBox="0 0 32 32">
<path d="M16.035 8.988c-1.798 0-3.261 1.463-3.261 3.261s1.463 3.261 3.261 3.261c1.798 0 3.261-1.463 3.261-3.261s-1.463-3.261-3.261-3.261zM16.035 14.552c-1.27 0-2.304-1.033-2.304-2.304s1.033-2.304 2.304-2.304c1.27 0 2.304 1.033 2.304 2.304s-1.033 2.304-2.304 2.304z"></path>
<path d="M21.779 12.232c0-3.194-2.599-5.793-5.793-5.793s-5.793 2.599-5.793 5.793 2.599 5.793 5.793 5.793c3.194 0 5.793-2.599 5.793-5.793zM15.986 17.069c-2.667 0-4.836-2.17-4.836-4.836s2.17-4.836 4.836-4.836 4.836 2.17 4.836 4.836c0 2.667-2.17 4.836-4.836 4.836z"></path>
<path d="M23.896 26.353h-1.794c-2.278 0-4.136-1.817-4.21-4.077 4.741-0.876 8.345-5.038 8.345-10.028 0-5.625-4.576-10.201-10.201-10.201s-10.201 4.576-10.201 10.201c0 4.938 3.527 9.066 8.193 10.001-0.061 2.273-1.925 4.104-4.212 4.104h-1.794c-0.264 0-0.478 0.214-0.478 0.478v2.43c0 0.264 0.214 0.478 0.478 0.478h15.874c0.264 0 0.478-0.214 0.478-0.478v-2.43c-0-0.264-0.214-0.478-0.479-0.478zM6.791 12.248c0-5.097 4.147-9.244 9.244-9.244s9.244 4.147 9.244 9.244-4.147 9.244-9.244 9.244c-5.097 0-9.244-4.147-9.244-9.244zM23.418 28.784h-14.917v-1.474h1.316c2.766 0 5.025-2.183 5.161-4.916 0.348 0.036 0.701 0.055 1.058 0.055 0.305 0 0.607-0.016 0.906-0.042 0.142 2.727 2.399 4.904 5.161 4.904h1.316v1.474z"></path>
</symbol>
<symbol id="icon-strawberry" viewBox="0 0 32 32">
<path d="M24 8.525c-1.5-0.615-3.4-0.73-5.605-0.75 2-1.19 1.83-4.060 1.62-4.77-0.053-0.223-0.251-0.386-0.487-0.386-0.028 0-0.055 0.002-0.081 0.007l0.003-0c-0.080-0.040-2.69 0.6-3.44 2.225-1.010-2.945-4.865-3.415-5.765-3.35-0.001 0-0.002 0-0.002 0-0.259 0-0.471 0.196-0.497 0.448l-0 0.002c-0.135 0.7-0.035 4.59 2.585 5.89-4 0.135-7.53 1.525-7.43 6.195 0.010 6.35 5.1 16.465 11.1 16.465s11.090-10.115 11.090-16.47c0-2.885-0.985-4.635-3.090-5.505zM17 5.11c0.519-0.663 1.237-1.149 2.063-1.369l0.027-0.006c0.033 0.176 0.052 0.378 0.052 0.585 0 1.588-1.118 2.915-2.61 3.236l-0.022 0.004c-0.001-0.005-0.002-0.010-0.002-0.015s0.001-0.011 0.002-0.015l-0 0c0-0.125 0-0.255 0-0.4-0.004-0.063-0.006-0.136-0.006-0.21 0-0.668 0.184-1.293 0.505-1.826l-0.009 0.016zM10.73 2.5c2.67 0.165 4.68 1.675 4.775 4.7 0 0.11 0 0.21 0 0.31s0 0.15 0 0.215c-3.12-0.195-4.825-2.065-4.775-5.225zM16 29.5c-5.375 0-10.090-9.64-10.090-15.47 0-2.43 0.89-3.845 2.885-4.575s5.205-0.69 7.97-0.69 5.2 0 6.855 0.68 2.47 2.12 2.47 4.585c0 5.83-4.715 15.47-10.090 15.47z"></path>
<path d="M9.5 10.090c-0.187 0.209-0.332 0.46-0.421 0.736l-0.004 0.014c-0.075 0.224-0.119 0.482-0.119 0.75s0.043 0.526 0.124 0.767l-0.005-0.017c0.095 0.286 0.24 0.533 0.427 0.742l-0.002-0.002c0.189-0.207 0.337-0.456 0.426-0.731l0.004-0.014c0.074-0.224 0.117-0.482 0.117-0.75s-0.043-0.526-0.122-0.767l0.005 0.017c-0.095-0.289-0.242-0.537-0.432-0.747l0.002 0.002z"></path>
<path d="M13.825 10.090c-0.187 0.209-0.332 0.46-0.421 0.736l-0.004 0.014c-0.075 0.224-0.119 0.482-0.119 0.75s0.043 0.526 0.124 0.767l-0.005-0.017c0.094 0.288 0.239 0.537 0.427 0.747l-0.002-0.002c0.187-0.208 0.334-0.457 0.426-0.73l0.004-0.015c0.075-0.224 0.119-0.482 0.119-0.75s-0.043-0.526-0.124-0.767l0.005 0.017c-0.094-0.291-0.241-0.541-0.432-0.752l0.002 0.002z"></path>
<path d="M18.175 10.090c-0.187 0.209-0.332 0.46-0.421 0.736l-0.004 0.014c-0.075 0.224-0.119 0.482-0.119 0.75s0.044 0.526 0.124 0.767l-0.005-0.017c0.096 0.288 0.243 0.537 0.432 0.747l-0.002-0.002c0.186-0.208 0.331-0.457 0.421-0.73l0.004-0.015c0.075-0.224 0.119-0.482 0.119-0.75s-0.044-0.526-0.124-0.767l0.005 0.017c-0.094-0.291-0.241-0.541-0.432-0.752l0.002 0.002z"></path>
<path d="M22.525 10.090c-0.188 0.209-0.335 0.459-0.426 0.735l-0.004 0.015c-0.074 0.224-0.117 0.482-0.117 0.75s0.043 0.526 0.122 0.767l-0.005-0.017c0.093 0.289 0.241 0.538 0.431 0.746l-0.001-0.002c0.186-0.208 0.331-0.457 0.421-0.73l0.004-0.015c0.075-0.224 0.119-0.482 0.119-0.75s-0.044-0.526-0.124-0.767l0.005 0.017c-0.093-0.29-0.238-0.541-0.427-0.752l0.002 0.002z"></path>
<path d="M9.5 19.33c-0.187 0.209-0.332 0.46-0.421 0.736l-0.004 0.015c-0.075 0.224-0.119 0.482-0.119 0.75s0.043 0.526 0.124 0.767l-0.005-0.017c0.093 0.287 0.239 0.534 0.427 0.742l-0.002-0.002c0.189-0.207 0.337-0.456 0.426-0.731l0.004-0.014c0.074-0.224 0.117-0.482 0.117-0.75s-0.043-0.526-0.122-0.767l0.005 0.017c-0.095-0.289-0.242-0.537-0.432-0.747l0.002 0.002z"></path>
<path d="M13.825 19.33c-0.187 0.209-0.332 0.46-0.421 0.736l-0.004 0.015c-0.075 0.224-0.119 0.482-0.119 0.75s0.043 0.526 0.124 0.767l-0.005-0.017c0.093 0.289 0.238 0.537 0.427 0.747l-0.002-0.002c0.188-0.208 0.335-0.456 0.426-0.731l0.004-0.014c0.075-0.224 0.119-0.482 0.119-0.75s-0.043-0.526-0.124-0.767l0.005 0.017c-0.094-0.291-0.241-0.541-0.432-0.752l0.002 0.002z"></path>
<path d="M18.175 19.33c-0.187 0.209-0.332 0.46-0.421 0.736l-0.004 0.015c-0.075 0.224-0.119 0.482-0.119 0.75s0.044 0.526 0.124 0.767l-0.005-0.017c0.095 0.289 0.242 0.537 0.432 0.747l-0.002-0.002c0.187-0.208 0.332-0.456 0.421-0.731l0.004-0.014c0.075-0.224 0.119-0.482 0.119-0.75s-0.044-0.526-0.124-0.767l0.005 0.017c-0.094-0.291-0.241-0.541-0.432-0.752l0.002 0.002z"></path>
<path d="M22.525 19.33c-0.188 0.209-0.335 0.459-0.426 0.735l-0.004 0.015c-0.074 0.224-0.117 0.482-0.117 0.75s0.043 0.526 0.122 0.767l-0.005-0.017c0.093 0.289 0.241 0.538 0.431 0.747l-0.001-0.002c0.187-0.208 0.332-0.456 0.421-0.731l0.004-0.014c0.075-0.224 0.119-0.482 0.119-0.75s-0.044-0.526-0.124-0.767l0.005 0.017c-0.093-0.29-0.238-0.541-0.427-0.752l0.002 0.002z"></path>
<path d="M11.65 23.68c-0.187 0.209-0.332 0.46-0.421 0.736l-0.004 0.015c-0.075 0.224-0.119 0.482-0.119 0.75s0.043 0.526 0.124 0.767l-0.005-0.017c0.094 0.288 0.239 0.537 0.427 0.747l-0.002-0.002c0.187-0.208 0.334-0.457 0.426-0.73l0.004-0.015c0.075-0.224 0.119-0.482 0.119-0.75s-0.043-0.526-0.124-0.767l0.005 0.017c-0.093-0.291-0.24-0.542-0.431-0.752l0.001 0.002z"></path>
<path d="M16 23.68c-0.187 0.209-0.332 0.46-0.421 0.736l-0.004 0.015c-0.075 0.224-0.119 0.482-0.119 0.75s0.043 0.526 0.124 0.767l-0.005-0.017c0.092 0.287 0.238 0.534 0.426 0.742l-0.001-0.002c0.188-0.207 0.333-0.456 0.421-0.731l0.004-0.014c0.075-0.224 0.119-0.482 0.119-0.75s-0.044-0.526-0.124-0.767l0.005 0.017c-0.093-0.289-0.239-0.537-0.427-0.747l0.002 0.002z"></path>
<path d="M20.35 23.68c-0.188 0.208-0.334 0.459-0.421 0.736l-0.004 0.014c-0.075 0.224-0.119 0.482-0.119 0.75s0.044 0.526 0.124 0.767l-0.005-0.017c0.096 0.288 0.243 0.537 0.432 0.747l-0.002-0.002c0.186-0.208 0.331-0.457 0.421-0.73l0.004-0.015c0.075-0.224 0.119-0.482 0.119-0.75s-0.044-0.526-0.124-0.767l0.005 0.017c-0.094-0.291-0.241-0.541-0.432-0.752l0.002 0.002z"></path>
<path d="M11.65 14.44c-0.186 0.208-0.331 0.457-0.421 0.73l-0.004 0.015c-0.075 0.224-0.119 0.482-0.119 0.75s0.043 0.526 0.124 0.767l-0.005-0.017c0.093 0.29 0.238 0.541 0.427 0.752l-0.002-0.002c0.188-0.209 0.335-0.459 0.426-0.735l0.004-0.015c0.075-0.224 0.119-0.482 0.119-0.75s-0.043-0.526-0.124-0.767l0.005 0.017c-0.093-0.289-0.241-0.538-0.431-0.746l0.001 0.002z"></path>
<path d="M7.3 14.44c-0.184 0.209-0.329 0.457-0.421 0.73l-0.004 0.015c-0.074 0.224-0.117 0.482-0.117 0.75s0.043 0.526 0.122 0.767l-0.005-0.017c0.093 0.29 0.238 0.541 0.427 0.752l-0.002-0.002c0.19-0.208 0.337-0.459 0.426-0.736l0.004-0.014c0.074-0.224 0.117-0.482 0.117-0.75s-0.043-0.526-0.122-0.767l0.005 0.017c-0.096-0.288-0.243-0.537-0.432-0.747l0.002 0.002z"></path>
<path d="M16 14.44c-0.186 0.208-0.331 0.457-0.421 0.73l-0.004 0.015c-0.075 0.224-0.119 0.482-0.119 0.75s0.043 0.526 0.124 0.767l-0.005-0.017c0.091 0.291 0.237 0.542 0.427 0.752l-0.002-0.002c0.188-0.208 0.334-0.459 0.421-0.736l0.004-0.014c0.075-0.224 0.119-0.482 0.119-0.75s-0.044-0.526-0.124-0.767l0.005 0.017c-0.094-0.288-0.239-0.537-0.427-0.747l0.002 0.002z"></path>
<path d="M20.35 14.44c-0.188 0.207-0.333 0.456-0.421 0.731l-0.004 0.014c-0.075 0.224-0.119 0.482-0.119 0.75s0.044 0.526 0.124 0.767l-0.005-0.017c0.095 0.291 0.242 0.541 0.432 0.752l-0.002-0.002c0.187-0.209 0.332-0.46 0.421-0.735l0.004-0.015c0.075-0.224 0.119-0.482 0.119-0.75s-0.044-0.526-0.124-0.767l0.005 0.017c-0.095-0.289-0.242-0.537-0.432-0.747l0.002 0.002z"></path>
<path d="M25.125 15.185c-0.096-0.288-0.241-0.536-0.427-0.747l0.002 0.002c-0.187 0.208-0.334 0.457-0.426 0.73l-0.004 0.015c-0.074 0.224-0.117 0.482-0.117 0.75s0.043 0.526 0.122 0.767l-0.005-0.017c0.093 0.291 0.24 0.542 0.431 0.752l-0.001-0.002c0.187-0.209 0.332-0.46 0.421-0.735l0.004-0.015c0.074-0.224 0.117-0.482 0.117-0.75s-0.043-0.526-0.122-0.767l0.005 0.017z"></path>
</symbol>
<symbol id="icon-communication" viewBox="0 0 32 32">
<path d="M29.342 5.748h-11.638c-0.911 0-1.652 0.741-1.652 1.652v1.388h-13.035c-1.17 0-2.122 0.952-2.122 2.122v9.797c0 1.17 0.952 2.121 2.122 2.121h2.038v4.108c0 0.189 0.112 0.361 0.285 0.438 0.062 0.027 0.128 0.041 0.193 0.041 0.117 0 0.232-0.043 0.322-0.124l4.912-4.462h8.547c1.17 0 2.121-0.952 2.121-2.121v-4.659h2.319l3.468 3.151c0.090 0.082 0.205 0.124 0.322 0.124 0.065 0 0.131-0.013 0.194-0.041 0.173-0.077 0.285-0.248 0.285-0.438v-2.797h1.319c0.91 0 1.651-0.741 1.651-1.652v-6.996c0-0.911-0.74-1.652-1.651-1.652zM20.478 20.707c0 0.642-0.523 1.165-1.165 1.165h-8.732c-0.119 0-0.233 0.044-0.322 0.124l-4.249 3.86v-3.506c0-0.264-0.214-0.478-0.478-0.478h-2.516c-0.643 0-1.165-0.522-1.165-1.165v-9.797c0-0.643 0.523-1.165 1.165-1.165h13.508c0.002 0 0.003 0 0.005 0s0.003-0 0.005-0h2.779c0.643 0 1.165 0.523 1.165 1.165v9.797zM30.036 14.396c0 0.384-0.312 0.696-0.695 0.696h-1.797c-0.264 0-0.478 0.214-0.478 0.478v2.194l-2.805-2.548c-0.088-0.080-0.203-0.124-0.322-0.124h-2.504v-4.181c0-1.17-0.952-2.122-2.121-2.122h-2.305v-1.388c0-0.384 0.312-0.695 0.695-0.695h11.638c0.383 0 0.695 0.312 0.695 0.695v6.996z"></path>
</symbol>
<symbol id="icon-family" viewBox="0 0 32 32">
<path d="M17.93 25.070c0.366-0.442 0.568-0.997 0.57-1.57 0-0.663-0.263-1.299-0.732-1.768s-1.105-0.732-1.768-0.732-1.299 0.263-1.768 0.732c-0.469 0.469-0.732 1.105-0.732 1.768 0.002 0.574 0.204 1.129 0.57 1.57-0.308 0.092-0.579 0.28-0.772 0.538s-0.298 0.57-0.299 0.892v4c0 0.133 0.053 0.26 0.146 0.354s0.221 0.146 0.354 0.146c0.133 0 0.26-0.053 0.354-0.146s0.146-0.221 0.146-0.354v-4c0-0.133 0.053-0.26 0.146-0.354s0.221-0.146 0.354-0.146h3c0.133 0 0.26 0.053 0.354 0.146s0.146 0.221 0.146 0.354v4c0 0.133 0.053 0.26 0.146 0.354s0.221 0.146 0.354 0.146c0.133 0 0.26-0.053 0.354-0.146s0.146-0.221 0.146-0.354v-4c-0.001-0.322-0.106-0.634-0.299-0.892s-0.463-0.446-0.772-0.538v0zM16 22c0.297 0 0.587 0.088 0.833 0.253s0.439 0.399 0.552 0.673c0.114 0.274 0.143 0.576 0.085 0.867s-0.201 0.558-0.411 0.768c-0.21 0.21-0.477 0.353-0.768 0.411s-0.593 0.028-0.867-0.085c-0.274-0.113-0.508-0.306-0.673-0.552s-0.253-0.537-0.253-0.833c0-0.398 0.158-0.779 0.439-1.061s0.663-0.439 1.061-0.439z"></path>
<path d="M28.992 18.652c0.598-0.282 1.104-0.728 1.46-1.286s0.545-1.205 0.548-1.867v-1c-0.001-0.663-0.264-1.298-0.733-1.767s-1.104-0.732-1.767-0.733h-7.5c-0.265 0-0.52 0.105-0.707 0.293s-0.293 0.442-0.293 0.707v2.5c0.003 0.661 0.192 1.309 0.548 1.867s0.861 1.004 1.46 1.286c0.037 0.887 0.412 1.727 1.047 2.348h-0.555c-0.663 0.001-1.298 0.264-1.767 0.733s-0.732 1.104-0.733 1.767v7c0 0.133 0.053 0.26 0.146 0.354s0.221 0.146 0.354 0.146c0.133 0 0.26-0.053 0.354-0.146s0.146-0.221 0.146-0.354v-4h1v4c0 0.133 0.053 0.26 0.146 0.354s0.221 0.146 0.354 0.146c0.133 0 0.26-0.053 0.354-0.146s0.146-0.221 0.146-0.354v-4.5c0-0.133-0.053-0.26-0.146-0.354s-0.221-0.146-0.354-0.146h-1.5v-2c0-0.398 0.158-0.779 0.439-1.061s0.663-0.439 1.061-0.439h1c0 0.53 0.211 1.039 0.586 1.414s0.884 0.586 1.414 0.586 1.039-0.211 1.414-0.586c0.375-0.375 0.586-0.884 0.586-1.414h1c0.398 0 0.779 0.158 1.061 0.439s0.439 0.663 0.439 1.061v2h-1.5c-0.133 0-0.26 0.053-0.354 0.146s-0.146 0.221-0.146 0.354v4.5c0 0.133 0.053 0.26 0.146 0.354s0.221 0.146 0.354 0.146c0.133 0 0.26-0.053 0.354-0.146s0.146-0.221 0.146-0.354v-4h1v4c0 0.133 0.053 0.26 0.146 0.354s0.221 0.146 0.354 0.146c0.133 0 0.26-0.053 0.354-0.146s0.146-0.221 0.146-0.354v-7c-0.001-0.663-0.264-1.298-0.733-1.767s-1.104-0.732-1.767-0.733h-0.555c0.636-0.62 1.010-1.46 1.048-2.348v0zM23 18.5v-2.5h2.5c0.133 0 0.26-0.053 0.354-0.146s0.146-0.221 0.146-0.354c0-0.133-0.053-0.26-0.146-0.354s-0.221-0.146-0.354-0.146h-3c-0.133 0-0.26 0.053-0.354 0.146s-0.146 0.221-0.146 0.354v1.997c-0.31-0.233-0.562-0.534-0.735-0.881s-0.264-0.729-0.265-1.116v-2.5h7.5c0.398 0 0.779 0.158 1.061 0.439s0.439 0.663 0.439 1.061v1c-0 0.388-0.091 0.77-0.265 1.116s-0.425 0.648-0.735 0.881v-1.997c0-0.133-0.053-0.26-0.146-0.354s-0.221-0.146-0.354-0.146h-1c-0.133 0-0.26 0.053-0.354 0.146s-0.146 0.221-0.146 0.354c0 0.133 0.053 0.26 0.146 0.354s0.221 0.146 0.354 0.146h0.5v2.5c0 0.663-0.263 1.299-0.732 1.768s-1.105 0.732-1.768 0.732-1.299-0.263-1.768-0.732c-0.469-0.469-0.732-1.105-0.732-1.768v0zM25.5 23c-0.265 0-0.52-0.105-0.707-0.293s-0.293-0.442-0.293-0.707h2c0 0.265-0.105 0.52-0.293 0.707s-0.442 0.293-0.707 0.293z"></path>
<path d="M9.5 21h-0.556c0.334-0.325 0.6-0.714 0.781-1.143s0.275-0.891 0.274-1.357v-3c0-0.133-0.053-0.26-0.146-0.354s-0.221-0.146-0.354-0.146h-1c-0.133 0-0.26 0.053-0.354 0.146s-0.146 0.221-0.146 0.354c0 0.133 0.053 0.26 0.146 0.354s0.221 0.146 0.354 0.146h0.5v2.5c0 0.663-0.263 1.299-0.732 1.768s-1.105 0.732-1.768 0.732-1.299-0.263-1.768-0.732c-0.469-0.469-0.732-1.105-0.732-1.768v-2.5h2.5c0.133 0 0.26-0.053 0.354-0.146s0.146-0.221 0.146-0.354c0-0.133-0.053-0.26-0.146-0.354s-0.221-0.146-0.354-0.146h-3c-0.133 0-0.26 0.053-0.354 0.146s-0.146 0.221-0.146 0.354v3c-0 0.466 0.093 0.927 0.274 1.357s0.447 0.818 0.781 1.143h-0.555c-0.663 0.001-1.298 0.264-1.767 0.733s-0.732 1.104-0.733 1.767v7c0 0.133 0.053 0.26 0.146 0.354s0.221 0.146 0.354 0.146c0.133 0 0.26-0.053 0.354-0.146s0.146-0.221 0.146-0.354v-4h1v4c0 0.133 0.053 0.26 0.146 0.354s0.221 0.146 0.354 0.146c0.133 0 0.26-0.053 0.354-0.146s0.146-0.221 0.146-0.354v-4.5c0-0.133-0.053-0.26-0.146-0.354s-0.221-0.146-0.354-0.146h-1.5v-2c0-0.398 0.158-0.779 0.439-1.061s0.663-0.439 1.061-0.439h1v1c-0 0.066 0.013 0.131 0.038 0.192s0.062 0.116 0.109 0.162l1.353 1.354v2.293c0 0.133 0.053 0.26 0.146 0.354s0.221 0.146 0.354 0.146c0.133 0 0.26-0.053 0.354-0.146s0.146-0.221 0.146-0.354v-2.293l1.354-1.354c0.046-0.047 0.083-0.102 0.108-0.162s0.038-0.126 0.038-0.192v-1h1c0.398 0 0.779 0.158 1.061 0.439s0.439 0.663 0.439 1.061v2h-1.5c-0.133 0-0.26 0.053-0.354 0.146s-0.146 0.221-0.146 0.354v4.5c0 0.133 0.053 0.26 0.146 0.354s0.221 0.146 0.354 0.146c0.133 0 0.26-0.053 0.354-0.146s0.146-0.221 0.146-0.354v-4h1v4c0 0.133 0.053 0.26 0.146 0.354s0.221 0.146 0.354 0.146c0.133 0 0.26-0.053 0.354-0.146s0.146-0.221 0.146-0.354v-7c-0.001-0.663-0.264-1.298-0.733-1.767s-1.104-0.732-1.767-0.733v0zM7.5 22.793l-1 1-1-1v-0.793h2v0.793z"></path>
<path d="M6.5 11c-1.458 0.002-2.856 0.582-3.887 1.613s-1.611 2.429-1.613 3.887v3.5c0 0.133 0.053 0.26 0.146 0.354s0.221 0.146 0.354 0.146c0.133 0 0.26-0.053 0.354-0.146s0.146-0.221 0.146-0.354v-3.5c0-1.193 0.474-2.338 1.318-3.182s1.989-1.318 3.182-1.318 2.338 0.474 3.182 1.318c0.844 0.844 1.318 1.989 1.318 3.182v3.5c0 0.133 0.053 0.26 0.146 0.354s0.221 0.146 0.354 0.146c0.133 0 0.26-0.053 0.354-0.146s0.146-0.221 0.146-0.354v-3.5c-0.002-1.458-0.582-2.856-1.613-3.887s-2.429-1.611-3.887-1.613z"></path>
<path d="M3.539 9.836l0.461-0.214v0.379c0 0.133 0.053 0.26 0.146 0.354s0.221 0.146 0.354 0.146 0.26-0.053 0.354-0.146c0.094-0.094 0.146-0.221 0.146-0.354v-0.843l10.361-4.811c0.2-0.093 0.418-0.141 0.639-0.141s0.439 0.048 0.639 0.141l10.361 4.811v0.843c0 0.133 0.053 0.26 0.146 0.354s0.221 0.146 0.354 0.146 0.26-0.053 0.354-0.146c0.094-0.094 0.146-0.221 0.146-0.354v-0.379l0.461 0.214c0.361 0.168 0.774 0.185 1.147 0.048s0.678-0.416 0.845-0.777c0.168-0.361 0.185-0.774 0.048-1.147s-0.416-0.678-0.777-0.845l-12.665-5.88c-0.332-0.154-0.694-0.234-1.060-0.234s-0.728 0.080-1.060 0.234l-12.665 5.88c-0.361 0.168-0.64 0.472-0.777 0.845s-0.119 0.786 0.048 1.147c0.168 0.361 0.472 0.64 0.845 0.777s0.786 0.119 1.147-0.048v0zM2.439 8.303c0.023-0.062 0.057-0.118 0.101-0.167s0.098-0.088 0.158-0.115l12.663-5.88c0.2-0.093 0.418-0.141 0.639-0.141s0.439 0.048 0.639 0.141l12.665 5.88c0.060 0.028 0.113 0.067 0.158 0.115s0.079 0.105 0.102 0.167c0.023 0.062 0.033 0.127 0.030 0.193s-0.018 0.13-0.046 0.19c-0.028 0.060-0.067 0.113-0.115 0.158s-0.105 0.079-0.167 0.101c-0.062 0.023-0.127 0.033-0.193 0.030s-0.13-0.018-0.19-0.046l-11.822-5.49c-0.332-0.154-0.694-0.234-1.060-0.234s-0.728 0.080-1.060 0.234l-11.822 5.49c-0.060 0.028-0.124 0.043-0.19 0.046s-0.131-0.007-0.193-0.030c-0.062-0.023-0.118-0.057-0.167-0.102s-0.087-0.098-0.115-0.158c-0.028-0.060-0.044-0.124-0.046-0.19s0.008-0.131 0.030-0.193h0.002z"></path>
<path d="M18.5 7.5h-5c-0.133 0-0.26 0.053-0.354 0.146s-0.146 0.221-0.146 0.354v4c0 0.133 0.053 0.26 0.146 0.354s0.221 0.146 0.354 0.146c0.133 0 0.26-0.053 0.354-0.146s0.146-0.221 0.146-0.354v-1.5h1.5v1.5c0 0.133 0.053 0.26 0.146 0.354s0.221 0.146 0.354 0.146c0.133 0 0.26-0.053 0.354-0.146s0.146-0.221 0.146-0.354v-1.5h1.5v1.5c0 0.133 0.053 0.26 0.146 0.354s0.221 0.146 0.354 0.146c0.133 0 0.26-0.053 0.354-0.146s0.146-0.221 0.146-0.354v-4c0-0.133-0.053-0.26-0.146-0.354s-0.221-0.146-0.354-0.146zM14 9.5v-1h1.5v1h-1.5zM16.5 9.5v-1h1.5v1h-1.5z"></path>
</symbol>
<symbol id="icon-game" viewBox="0 0 32 32">
<path d="M9.333 12.333c0.177 0 0.346-0.070 0.471-0.195s0.195-0.295 0.195-0.471c0-0.177-0.070-0.346-0.195-0.471s-0.295-0.195-0.471-0.195h-1v-1c0-0.177-0.070-0.346-0.195-0.471s-0.295-0.195-0.471-0.195c-0.177 0-0.346 0.070-0.471 0.195s-0.195 0.295-0.195 0.471v1h-1c-0.177 0-0.346 0.070-0.471 0.195s-0.195 0.295-0.195 0.471c0 0.177 0.070 0.346 0.195 0.471s0.295 0.195 0.471 0.195h1v1c0 0.177 0.070 0.346 0.195 0.471s0.295 0.195 0.471 0.195c0.177 0 0.346-0.070 0.471-0.195s0.195-0.295 0.195-0.471v-1h1z"></path>
<path d="M24.333 10.667c0.368 0 0.667-0.298 0.667-0.667s-0.298-0.667-0.667-0.667c-0.368 0-0.667 0.298-0.667 0.667s0.298 0.667 0.667 0.667z"></path>
<path d="M24.333 14c0.368 0 0.667-0.298 0.667-0.667s-0.298-0.667-0.667-0.667c-0.368 0-0.667 0.298-0.667 0.667s0.298 0.667 0.667 0.667z"></path>
<path d="M26 12.333c0.368 0 0.667-0.298 0.667-0.667s-0.298-0.667-0.667-0.667c-0.368 0-0.667 0.298-0.667 0.667s0.298 0.667 0.667 0.667z"></path>
<path d="M22.667 12.333c0.368 0 0.667-0.298 0.667-0.667s-0.298-0.667-0.667-0.667c-0.368 0-0.667 0.298-0.667 0.667s0.298 0.667 0.667 0.667z"></path>
<path d="M11 14.667c-0.461 0-0.913 0.137-1.296 0.393s-0.683 0.621-0.859 1.047-0.223 0.896-0.133 1.348c0.090 0.453 0.312 0.868 0.639 1.195s0.742 0.549 1.195 0.639c0.453 0.090 0.922 0.044 1.348-0.133s0.791-0.476 1.047-0.859c0.256-0.384 0.393-0.835 0.393-1.296 0-0.619-0.246-1.212-0.683-1.65s-1.031-0.683-1.65-0.683zM11 18c-0.198 0-0.391-0.059-0.556-0.169s-0.293-0.266-0.368-0.449-0.096-0.384-0.057-0.578c0.039-0.194 0.134-0.372 0.274-0.512s0.318-0.235 0.512-0.274c0.194-0.039 0.395-0.019 0.578 0.057s0.339 0.204 0.449 0.368c0.11 0.164 0.169 0.358 0.169 0.556 0 0.265-0.105 0.52-0.293 0.707s-0.442 0.293-0.707 0.293z"></path>
<path d="M21 14.667c-0.461 0-0.913 0.137-1.296 0.393s-0.683 0.621-0.859 1.047-0.223 0.896-0.133 1.348c0.090 0.453 0.312 0.868 0.639 1.195s0.742 0.549 1.195 0.639c0.453 0.090 0.922 0.044 1.348-0.133s0.791-0.476 1.047-0.859c0.256-0.384 0.393-0.835 0.393-1.296 0-0.619-0.246-1.212-0.683-1.65s-1.031-0.683-1.65-0.683v0zM21 18c-0.198 0-0.391-0.059-0.556-0.169s-0.293-0.266-0.368-0.449c-0.076-0.183-0.096-0.384-0.057-0.578s0.134-0.372 0.274-0.512c0.14-0.14 0.318-0.235 0.512-0.274s0.395-0.019 0.578 0.057 0.339 0.204 0.449 0.368c0.11 0.164 0.169 0.358 0.169 0.556 0 0.265-0.105 0.52-0.293 0.707s-0.442 0.293-0.707 0.293v0z"></path>
<path d="M14.667 12.667h-0.667c-0.177 0-0.346 0.070-0.471 0.195s-0.195 0.295-0.195 0.471c0 0.177 0.070 0.346 0.195 0.471s0.295 0.195 0.471 0.195h0.667c0.177 0 0.346-0.070 0.471-0.195s0.195-0.295 0.195-0.471c0-0.177-0.070-0.346-0.195-0.471s-0.295-0.195-0.471-0.195z"></path>
<path d="M18 12.667h-0.667c-0.177 0-0.346 0.070-0.471 0.195s-0.195 0.295-0.195 0.471c0 0.177 0.070 0.346 0.195 0.471s0.295 0.195 0.471 0.195h0.667c0.177 0 0.346-0.070 0.471-0.195s0.195-0.295 0.195-0.471c0-0.177-0.070-0.346-0.195-0.471s-0.295-0.195-0.471-0.195z"></path>
<path d="M29.655 9.829c-0.206-0.769-0.561-1.49-1.046-2.122s-1.089-1.162-1.779-1.56-1.451-0.657-2.24-0.76c-0.789-0.104-1.592-0.051-2.361 0.155-1.268 0.409-2.389 1.176-3.229 2.21-0.065 0.080-0.148 0.144-0.242 0.187s-0.196 0.064-0.3 0.062h-4.913c-0.103 0.002-0.206-0.019-0.3-0.062s-0.177-0.107-0.242-0.187c-0.84-1.034-1.962-1.802-3.23-2.21-0.769-0.206-1.572-0.259-2.361-0.156s-1.551 0.362-2.241 0.76-1.294 0.928-1.779 1.56c-0.485 0.632-0.84 1.353-1.046 2.122-2.727 10.177-2.137 15.638 1.804 16.693 2.445 0.656 4.667-0.867 6.621-4.529 0.079 0.005 0.155 0.007 0.23 0.007 1.26 0.004 2.474-0.473 3.395-1.333h3.211c0.921 0.86 2.135 1.337 3.395 1.333 0.075 0 0.151 0 0.23-0.007 1.658 3.109 3.513 4.677 5.533 4.677 0.368-0.001 0.733-0.051 1.088-0.148 3.94-1.055 4.53-6.516 1.803-16.693zM27.505 25.235c-1.841 0.493-3.621-0.938-5.297-4.251-0.063-0.124-0.163-0.225-0.286-0.29s-0.264-0.088-0.402-0.069c-0.172 0.026-0.346 0.040-0.52 0.041-0.494 0.001-0.983-0.098-1.437-0.292s-0.864-0.479-1.204-0.837c-0.062-0.065-0.137-0.116-0.22-0.152s-0.172-0.053-0.262-0.053h-3.755c-0.090-0-0.179 0.018-0.262 0.053s-0.157 0.087-0.22 0.152c-0.34 0.358-0.75 0.642-1.204 0.837s-0.943 0.293-1.437 0.292c-0.174-0.002-0.348-0.015-0.52-0.041-0.138-0.019-0.278 0.005-0.402 0.069s-0.224 0.166-0.286 0.29c-1.677 3.313-3.459 4.744-5.297 4.251-2.989-0.8-3.287-6.009-0.862-15.061 0.27-1.004 0.863-1.892 1.687-2.525s1.834-0.979 2.874-0.982c0.416 0 0.83 0.055 1.232 0.163 0.985 0.331 1.857 0.931 2.517 1.733 0.19 0.242 0.434 0.437 0.711 0.57s0.581 0.202 0.889 0.2h4.913c0.308 0.002 0.612-0.067 0.889-0.2s0.52-0.329 0.711-0.571c0.66-0.802 1.532-1.403 2.517-1.733 1.212-0.324 2.502-0.153 3.589 0.474s1.879 1.66 2.205 2.871c2.425 9.052 2.127 14.26-0.862 15.061z"></path>
</symbol>
<symbol id="icon-arrow-left" viewBox="0 0 32 32">
<path d="M20.391 4.391l-11.609 11.609 11.609 11.609 1.885-1.885-9.724-9.724 9.724-9.724-1.885-1.885z"></path>
</symbol>
<symbol id="icon-male" viewBox="0 0 28 32">
<path d="M18.113 2.925c0.231-0.563 0.781-0.925 1.387-0.925h7c0.831 0 1.5 0.669 1.5 1.5v7c0 0.606-0.363 1.156-0.925 1.387s-1.206 0.106-1.637-0.325l-2.087-2.088-3.288 3.287c1.219 1.775 1.938 3.919 1.938 6.238 0 6.075-4.925 11-11 11s-11-4.925-11-11 4.925-11 11-11c2.313 0 4.463 0.713 6.238 1.938l3.288-3.287-2.087-2.088c-0.431-0.431-0.556-1.075-0.325-1.638zM25 5v0 0 0zM11 26c3.866 0 7-3.134 7-7s-3.134-7-7-7v0c-3.866 0-7 3.134-7 7s3.134 7 7 7v0z"></path>
</symbol>
<symbol id="icon-female" viewBox="0 0 24 32">
<path d="M5 11c0-3.866 3.134-7 7-7s7 3.134 7 7v0c0 3.866-3.134 7-7 7s-7-3.134-7-7v0zM14 21.819c5.119-0.938 9-5.425 9-10.819 0-6.075-4.925-11-11-11s-11 4.925-11 11c0 5.394 3.881 9.881 9 10.819v2.181h-2c-1.106 0-2 0.894-2 2s0.894 2 2 2h2v2c0 1.106 0.894 2 2 2s2-0.894 2-2v-2h2c1.106 0 2-0.894 2-2s-0.894-2-2-2h-2v-2.181z"></path>
</symbol>
<symbol id="icon-earth" viewBox="0 0 32 32">
<path d="M15.197 1.6l-1.322 0.059-1.313 0.169-1.297 0.291-1.262 0.4-1.228 0.506-1.175 0.606-1.119 0.716-1.050 0.806-0.978 0.897-0.894 0.981-0.813 1.050-0.709 1.116-0.613 1.178-0.506 1.222-0.4 1.272-0.291 1.291-0.169 1.319-0.059 1.322 0.059 1.322 0.169 1.319 0.291 1.291 0.4 1.266 0.506 1.228 0.613 1.178 0.709 1.116 0.813 1.050 0.894 0.981 0.978 0.897 1.050 0.806 1.119 0.709 1.175 0.613 1.228 0.506 1.262 0.4 1.297 0.291 1.313 0.169 1.322 0.059 1.328-0.059 1.313-0.169 1.297-0.291 1.262-0.4 1.228-0.506 1.175-0.613 1.119-0.709 1.050-0.806 0.978-0.897 0.894-0.981 0.806-1.050 0.716-1.116 0.613-1.178 0.506-1.228 0.397-1.266 0.288-1.291 0.175-1.319 0.059-1.322-0.059-1.322-0.175-1.319-0.288-1.291-0.397-1.272-0.506-1.222-0.613-1.178-0.716-1.116-0.806-1.050-0.894-0.981-0.978-0.897-1.050-0.806-1.119-0.716-1.175-0.606-1.228-0.506-1.262-0.4-1.297-0.291-1.313-0.169-1.328-0.059zM17.881 3.659l1.097 0.272 1.069 0.363 1.041 0.453 0.991 0.541 0.944 0.619 0.891 0.697 0.828 0.769 0.756 0.838 0.688 0.903-2.094 0.497-2.119 0.394-0.497-1.162-0.575-1.131-0.65-1.088-0.722-1.041-0.788-0.987-0.859-0.934zM13.906 4.066l-0.425 2.122-0.353 2.141-0.272 2.15-1.628-0.122-1.616-0.181-1.616-0.241 0.619-1.041 0.703-0.978 0.784-0.922 0.853-0.847 0.922-0.781 0.988-0.694 1.041-0.606zM15.738 4.088l0.922 0.878 0.853 0.944 0.778 1.009 0.7 1.069 0.625 1.109 0.531 1.156-1.828 0.172-1.834 0.097-1.838 0.016 0.284-2.166 0.363-2.153 0.444-2.131zM10.369 4.287l-1.012 0.909-0.934 0.991-0.841 1.069-0.759 1.131-0.656 1.194-1.95-0.469 0.688-0.903 0.763-0.841 0.825-0.769 0.897-0.7 0.944-0.625 0.997-0.537 1.041-0.45zM3.253 10.703l2.2 0.547-0.422 1.325-0.306 1.35-0.184 1.372-0.072 1.381-1.331-0.272-1.328-0.3 0.106-1.125 0.197-1.106 0.294-1.088 0.378-1.063 0.469-1.022zM27.147 10.703l0.469 1.022 0.378 1.063 0.294 1.088 0.197 1.106 0.106 1.125-1.769 0.394-1.788 0.344-1.794 0.281-0.025-1.366-0.125-1.359-0.222-1.35-0.322-1.328 1.544-0.284 1.534-0.341 1.522-0.394zM7.222 11.616l1.816 0.287 1.822 0.213 1.831 0.144-0.106 1.787-0.059 1.794v1.791l-2.097-0.137-2.091-0.212-2.075-0.291 0.028-1.097 0.109-1.094 0.194-1.084 0.278-1.066 0.35-1.034zM20.762 11.981l0.328 1.319 0.231 1.341 0.116 1.353 0.012 1.356-2.375 0.212-2.378 0.113-2.384 0.009v-1.787l0.059-1.784 0.109-1.787 2.097-0.019 2.097-0.109 2.087-0.216zM1.841 17.947l1.353 0.3 1.366 0.272 0.162 1.103 0.228 1.094 0.309 1.078 0.378 1.050 0.453 1.025-1.344-0.316-1.334-0.356-0.484-0.994-0.406-1.022-0.313-1.056-0.231-1.078-0.137-1.1zM28.559 17.947l-0.137 1.1-0.231 1.078-0.313 1.056-0.406 1.022-0.484 0.994-1.762 0.466-1.775 0.381-1.794 0.316 0.519-1.306 0.416-1.344 0.319-1.372 0.216-1.387 1.819-0.278 1.813-0.334 1.803-0.391zM6.4 18.822l2.056 0.272 2.053 0.203 2.069 0.128 0.106 1.794 0.159 1.791 0.219 1.781-1.572-0.106-1.569-0.166-1.563-0.219-0.566-1.022-0.481-1.069-0.394-1.103-0.303-1.131-0.216-1.153zM21.294 19.169l-0.203 1.131-0.272 1.122-0.35 1.091-0.428 1.075-0.491 1.041-1.556 0.128-1.559 0.072-1.563 0.019-0.225-1.784-0.166-1.791-0.109-1.794 2.309-0.016 2.309-0.103 2.303-0.191zM4.944 25.444l1.169 0.259 1.175 0.225 0.678 0.928 0.741 0.875 0.806 0.822 0.856 0.759-1.028-0.444-0.988-0.534-0.938-0.613-0.888-0.688-0.825-0.766-0.759-0.825zM25.456 25.444l-0.759 0.825-0.825 0.766-0.887 0.688-0.938 0.606-0.988 0.534-1.028 0.45-1.063 0.363-1.087 0.266 0.778-0.844 0.725-0.891 0.672-0.934 0.609-0.969 1.606-0.231 1.6-0.288 1.584-0.341zM9.838 26.313l1.75 0.175 1.747 0.109 0.269 1.475 0.303 1.462-1.119-0.659-1.063-0.766-0.981-0.856-0.906-0.941zM18.403 26.522l-0.809 1.066-0.891 1.003-0.966 0.922-0.309-1.434-0.272-1.441 1.625-0.031 1.622-0.084z"></path>
</symbol>
<symbol id="icon-hearts" viewBox="0 0 32 32">
<path d="M30.234 8.9c-1.363-1.431-3.271-1.976-5.247-1.772 0.273-1.976-0.273-3.952-1.635-5.315-2.521-2.589-6.746-2.385-9.88 0.477-1.499 1.363-2.385 4.225-2.657 8.722-0.681 0.273-1.363 0.75-1.908 1.295-1.431 1.363-1.976 3.339-1.772 5.315-1.976-0.273-3.952 0.273-5.315 1.635-2.521 2.521-2.317 6.814 0.477 9.948 1.704 1.84 5.724 2.794 12.197 2.794 2.93 0 5.179-0.204 5.247-0.136 0.613-0.068 1.158-0.545 1.227-1.158 0.136-0.75 0.681-4.906 0.477-9.199 3.884-0.273 6.61-1.158 8.041-2.657 1.499-1.431 2.385-3.475 2.453-5.451 0.068-1.704-0.545-3.339-1.704-4.497zM18.514 29.206c-0.954 0.068-2.385 0.136-4.020 0.136-5.247 0-9.063-0.681-10.153-1.908-1.84-2.044-2.112-4.77-0.613-6.269 0.818-0.818 1.772-0.954 2.453-0.954 0.75 0 1.567 0.204 2.317 0.545 0.477 0.273 1.158 0.204 1.567-0.204s0.545-1.022 0.273-1.567c-0.886-1.704-0.75-3.68 0.409-4.838 0.681-0.613 1.567-0.954 2.521-0.954 1.295 0 2.657 0.613 3.611 1.635 2.453 2.657 2.112 10.494 1.635 14.378zM27.713 16.941c-1.090 1.090-3.339 1.772-6.541 1.976-0.341-2.317-1.090-4.429-2.385-5.86-1.363-1.567-3.271-2.453-5.247-2.521 0.409-4.497 1.363-5.928 1.772-6.269 2.044-1.84 4.77-2.112 6.201-0.613 1.158 1.227 1.295 3.135 0.341 4.906-0.273 0.477-0.204 1.158 0.204 1.567 0.409 0.477 1.022 0.545 1.567 0.273 1.704-0.954 3.611-0.75 4.77 0.409 0.613 0.613 0.954 1.567 0.954 2.589 0 1.295-0.613 2.589-1.635 3.543z"></path>
</symbol>
<symbol id="icon-venus-mars-solid" viewBox="0 0 32 32">
<path d="M8.8 17.6c3.093 0 5.6-2.507 5.6-5.6s-2.507-5.6-5.6-5.6v0c-3.093 0-5.6 2.507-5.6 5.6s2.507 5.6 5.6 5.6v0zM17.6 12c0 4.315-3.105 7.905-7.2 8.655v1.745h1.6c0.885 0 1.6 0.715 1.6 1.6s-0.715 1.6-1.6 1.6h-1.6v1.6c0 0.885-0.715 1.6-1.6 1.6s-1.6-0.715-1.6-1.6v-1.6h-1.6c-0.885 0-1.6-0.715-1.6-1.6s0.715-1.6 1.6-1.6h1.6v-1.745c-4.095-0.75-7.2-4.34-7.2-8.655 0-4.86 3.94-8.8 8.8-8.8s8.8 3.94 8.8 8.8zM13.595 21.23c0.965-0.505 1.845-1.155 2.605-1.92 1 0.925 2.335 1.49 3.805 1.49 3.095 0 5.6-2.505 5.6-5.6s-2.505-5.6-5.6-5.6c-0.36 0-0.715 0.035-1.055 0.1-0.245-1.075-0.65-2.085-1.2-3.010 0.715-0.19 1.47-0.29 2.25-0.29 1.85 0 3.57 0.57 4.99 1.55l1.030-1.030-1.67-1.67c-0.345-0.345-0.445-0.86-0.26-1.31s0.625-0.74 1.11-0.74h5.6c0.665 0 1.2 0.535 1.2 1.2v5.6c0 0.485-0.29 0.925-0.74 1.11s-0.965 0.085-1.31-0.26l-1.67-1.67-1.030 1.030c0.975 1.42 1.55 3.135 1.55 4.99 0 4.86-3.94 8.8-8.8 8.8-2.525 0-4.8-1.065-6.405-2.77z"></path>
</symbol>
<symbol id="icon-mercury-solid" viewBox="0 0 32 32">
<path d="M8.506 0.438c0.856-0.688 2.119-0.55 2.806 0.313 1.1 1.375 2.794 2.25 4.688 2.25s3.581-0.875 4.688-2.25c0.694-0.863 1.95-1 2.813-0.313s1 1.95 0.313 2.813c-0.488 0.606-1.038 1.15-1.65 1.631 2.919 1.975 4.837 5.325 4.837 9.119 0 5.569-4.137 10.169-9.5 10.9v1.6h2c0.831 0 1.5 0.669 1.5 1.5s-0.669 1.5-1.5 1.5h-2v1c0 0.831-0.669 1.5-1.5 1.5s-1.5-0.669-1.5-1.5v-1h-2c-0.831 0-1.5-0.669-1.5-1.5s0.669-1.5 1.5-1.5h2v-1.6c-5.363-0.731-9.5-5.331-9.5-10.9 0-3.794 1.919-7.144 4.844-9.119-0.613-0.475-1.162-1.025-1.65-1.631-0.694-0.863-0.55-2.119 0.313-2.813zM9 14c0 3.866 3.134 7 7 7s7-3.134 7-7v0c0-3.866-3.134-7-7-7s-7 3.134-7 7v0z"></path>
</symbol>
<symbol id="icon-romantic" viewBox="0 0 32 32">
<path d="M28.98 16.586c3.167-3.203 3.167-8.413 0-11.616-1.536-1.554-3.58-2.41-5.753-2.41-0.001 0-0.001 0-0.001 0-2.173 0-4.218 0.856-5.754 2.41l-1.472 1.488-1.472-1.488c-1.537-1.554-3.58-2.41-5.754-2.41s-4.217 0.856-5.754 2.41c-3.167 3.203-3.167 8.413 0 11.616l12.98 13.124 12.98-13.124zM3.93 5.869c1.294-1.309 3.015-2.029 4.844-2.029s3.55 0.721 4.844 2.029l2.382 2.409 2.382-2.409c1.294-1.309 3.015-2.029 4.844-2.029s3.549 0.721 4.844 2.029c2.677 2.707 2.677 7.11 0 9.816l-12.070 12.204-12.070-12.204c-2.677-2.707-2.677-7.11 0-9.816z"></path>
</symbol>
</defs>
</svg>
